<?xml version="1.0" encoding="utf-8"?>
<!-- Generator: Adobe Illustrator 21.1.0, SVG Export Plug-In . SVG Version: 6.00 Build 0)  -->
<svg version="1.1" id="Layer_1" xmlns="http://www.w3.org/2000/svg" xmlns:xlink="http://www.w3.org/1999/xlink" x="0px" y="0px"
	 viewBox="0 0 43.9 69.5" style="enable-background:new 0 0 43.9 69.5;" xml:space="preserve">
<style type="text/css">
	.st0{fill:#012169;}
</style>
<title>ppt-pilcrow</title>
<path class="st0" d="M11.2,60.1c0-5.7,5.3-8.9,9.4-8.8c3,0.1,5.6,1.4,5.6,4.3c0,2.6-1.7,4.5-3.7,4.5c-1.2-0.2-2.3-0.8-3-1.7
	c-0.8-0.8-1.4-1.5-1.9-1.5c-1.1,0-2.5,1.4-2.5,3.9s2.2,5.7,7.2,5.7c3.2,0,6.7-2.3,6.7-7.5V44.8c0-0.8-0.2-2-1.1-2
	C13.4,42.8,0,34.5,0,21.5C0,5.3,12.3,0,31.4,0c3.8,0,7.6,0.2,11.3,0.6C43.5,1,44,1.9,43.9,2.8c0,1-0.5,2.8-1.2,2.8
	C40,5,37.1,4.6,34.2,4.5c-0.9,0-1.5,1-1.5,1.9v52.4c0,4.4-3,10.7-10.8,10.7C15.7,69.5,11.2,65.5,11.2,60.1z"/>
</svg>
